<svg width="24.000244" height="22.000000" viewBox="0 0 24.0002 22" fill="none" xmlns="http://www.w3.org/2000/svg" xmlns:xlink="http://www.w3.org/1999/xlink">
	<desc>
			Created with Pixso.
	</desc>
	<defs/>
	<path id="rect (Граница)" d="M0 1.26L0 20.73C0 21.15 0.1 21.47 0.32 21.68C0.53 21.89 0.85 22 1.28 22L15.39 22C15.82 22 16.14 21.89 16.35 21.68C16.57 21.47 16.67 21.15 16.67 20.73L16.67 1.26C16.67 0.84 16.57 0.52 16.35 0.31C16.14 0.1 15.82 0 15.39 0L1.28 0C0.85 0 0.53 0.1 0.32 0.31C0.1 0.52 0 0.84 0 1.26ZM2.56 19.46L2.56 2.53L14.11 2.53L14.11 19.46L2.56 19.46Z" fill="#FFFFFF" fill-opacity="1.000000" fill-rule="evenodd"/>
	<g opacity="0.150000">
		<path id="Многоугольник 1" d="M16.5 15L21.5 7L16 4.5L16.5 15Z" fill="#FFFFFF" fill-opacity="1.000000" fill-rule="evenodd"/>
	</g>
	<path id="path (Граница)" d="M15.94 1.81C15.29 1.51 14.53 1.77 14.23 2.42C13.92 3.06 14.19 3.8 14.84 4.1L20.86 6.91L14.27 18.41C13.92 19.03 14.13 19.79 14.76 20.14C15.38 20.49 16.15 20.28 16.51 19.66L23.78 6.97C23.79 6.94 23.81 6.91 23.82 6.88C24.18 6.12 23.98 5.55 23.21 5.19L15.94 1.81Z" fill="#FFFFFF" fill-opacity="1.000000" fill-rule="evenodd"/>
</svg>
