<svg width="24.000000" height="24.000000" viewBox="0 0 24 24" fill="none" xmlns="http://www.w3.org/2000/svg" xmlns:xlink="http://www.w3.org/1999/xlink">
	<desc>
			Created with Pixso.
	</desc>
	<defs/>
	<g opacity="0.150000">
		<path id="path" d="M0.92 12C0.92 10.64 2.02 9.53 3.38 9.53L12 9.53C13.35 9.53 14.46 10.64 14.46 12L14.46 20.61C14.46 21.97 13.35 23.07 12 23.07L3.38 23.07C2.02 23.07 0.92 21.97 0.92 20.61L0.92 12Z" fill="#FFFFFF" fill-opacity="1.000000" fill-rule="nonzero"/>
	</g>
	<g opacity="0.150000">
		<path id="path (Граница)" d="M12 8.92L3.38 8.92C2.95 8.92 2.56 8.99 2.2 9.14C1.84 9.29 1.5 9.52 1.2 9.82C0.9 10.12 0.68 10.45 0.53 10.81C0.38 11.18 0.3 11.57 0.3 12L0.3 20.61C0.3 21.04 0.38 21.43 0.53 21.79C0.68 22.15 0.9 22.49 1.2 22.79C1.5 23.09 1.84 23.31 2.2 23.46C2.56 23.61 2.95 23.69 3.38 23.69L12 23.69C12.42 23.69 12.81 23.61 13.18 23.46C13.54 23.31 13.87 23.09 14.17 22.79C14.47 22.49 14.7 22.15 14.85 21.79C15 21.43 15.07 21.04 15.07 20.61L15.07 12C15.07 11.57 15 11.18 14.85 10.81C14.7 10.45 14.47 10.12 14.17 9.82C13.87 9.52 13.54 9.29 13.18 9.14C12.81 8.99 12.42 8.92 12 8.92ZM2.67 10.28C2.89 10.19 3.12 10.15 3.38 10.15L12 10.15C12.61 10.15 13.07 10.3 13.38 10.61C13.69 10.92 13.84 11.38 13.84 12L13.84 20.61C13.84 21.23 13.69 21.69 13.38 22C13.07 22.3 12.61 22.46 12 22.46L3.38 22.46C2.76 22.46 2.3 22.3 2 22C1.69 21.69 1.53 21.23 1.53 20.61L1.53 12C1.53 11.74 1.58 11.5 1.67 11.29C1.76 11.07 1.89 10.87 2.07 10.69C2.25 10.51 2.45 10.37 2.67 10.28Z" fill="#FFFFFF" fill-opacity="1.000000" fill-rule="evenodd"/>
	</g>
	<path id="path (Граница)" d="M20.61 13.53L18.76 13.53C18.25 13.53 17.84 13.94 17.84 14.46C17.84 14.97 18.25 15.38 18.76 15.38L20.61 15.38C21.08 15.38 21.51 15.3 21.91 15.13C22.31 14.97 22.67 14.72 23 14.39C23.33 14.06 23.58 13.69 23.75 13.29C23.91 12.9 24 12.46 24 12L24 3.38C24 2.91 23.91 2.48 23.75 2.08C23.58 1.68 23.33 1.32 23 0.99C22.67 0.66 22.31 0.41 21.91 0.24C21.51 0.08 21.08 0 20.61 0L12 0C11.53 0 11.09 0.08 10.7 0.24C10.3 0.41 9.93 0.66 9.6 0.99C9.27 1.32 9.02 1.68 8.86 2.08C8.69 2.48 8.61 2.91 8.61 3.38L8.61 5.23C8.61 5.74 9.02 6.15 9.53 6.15C10.05 6.15 10.46 5.74 10.46 5.23L10.46 3.38C10.46 2.87 10.58 2.48 10.84 2.23C11.1 1.97 11.48 1.84 12 1.84L20.61 1.84C21.12 1.84 21.51 1.97 21.76 2.23C22.02 2.48 22.15 2.87 22.15 3.38L22.15 12C22.15 12.51 22.02 12.89 21.76 13.15C21.51 13.41 21.12 13.53 20.61 13.53ZM13.29 8.86C12.9 8.69 12.46 8.61 12 8.61L3.38 8.61C2.91 8.61 2.48 8.69 2.08 8.86C1.68 9.02 1.32 9.27 0.99 9.6C0.66 9.93 0.41 10.3 0.24 10.7C0.08 11.09 0 11.53 0 12L0 20.61C0 21.08 0.08 21.51 0.24 21.91C0.41 22.31 0.66 22.67 0.99 23C1.32 23.33 1.68 23.58 2.08 23.75C2.48 23.91 2.91 24 3.38 24L12 24C12.46 24 12.9 23.91 13.29 23.75C13.69 23.58 14.06 23.33 14.39 23C14.72 22.67 14.97 22.31 15.13 21.91C15.3 21.51 15.38 21.08 15.38 20.61L15.38 12C15.38 11.53 15.3 11.09 15.13 10.7C14.97 10.3 14.72 9.93 14.39 9.6C14.06 9.27 13.69 9.02 13.29 8.86ZM3.38 10.46L12 10.46C12.51 10.46 12.89 10.58 13.15 10.84C13.41 11.1 13.53 11.48 13.53 12L13.53 20.61C13.53 21.12 13.41 21.51 13.15 21.76C12.89 22.02 12.51 22.15 12 22.15L3.38 22.15C2.87 22.15 2.48 22.02 2.23 21.76C1.97 21.51 1.84 21.12 1.84 20.61L1.84 12C1.84 11.48 1.97 11.1 2.23 10.84C2.48 10.58 2.87 10.46 3.38 10.46Z" fill="#FFFFFF" fill-opacity="1.000000" fill-rule="evenodd"/>
</svg>
