<svg width="16.000000" height="16.000000" viewBox="0 0 16 16" fill="none" xmlns="http://www.w3.org/2000/svg" xmlns:xlink="http://www.w3.org/1999/xlink">
	<desc>
			Created with Pixso.
	</desc>
	<defs/>
	<path id="search" d="M4.15 13.06C4.99 13.41 5.87 13.59 6.79 13.59C7.72 13.59 8.6 13.41 9.44 13.06C9.82 12.9 10.19 12.7 10.53 12.47C10.69 12.37 10.85 12.26 11 12.14L14.63 15.76C14.94 16.07 15.44 16.07 15.76 15.76C16.07 15.44 16.07 14.94 15.76 14.63L12.13 11.01C12.25 10.85 12.37 10.7 12.47 10.53C12.7 10.19 12.89 9.82 13.06 9.44C13.41 8.6 13.59 7.72 13.59 6.79C13.59 5.87 13.41 4.99 13.06 4.15C12.89 3.76 12.7 3.4 12.47 3.06C12.22 2.67 11.93 2.32 11.6 1.99C11.27 1.66 10.91 1.36 10.53 1.11C10.19 0.89 9.82 0.69 9.44 0.53C9.06 0.37 8.67 0.24 8.27 0.16C7.79 0.05 7.3 0 6.79 0C6.29 0 5.8 0.05 5.32 0.16C4.92 0.24 4.53 0.37 4.15 0.53C3.76 0.69 3.4 0.89 3.06 1.11C2.67 1.36 2.32 1.66 1.99 1.99C1.66 2.32 1.36 2.67 1.11 3.06C0.89 3.4 0.69 3.76 0.53 4.15C0.37 4.53 0.24 4.92 0.16 5.32C0.05 5.8 0 6.29 0 6.79C0 7.3 0.05 7.79 0.16 8.27C0.24 8.67 0.37 9.06 0.53 9.44C0.69 9.82 0.89 10.19 1.11 10.53C1.36 10.91 1.66 11.27 1.99 11.6C2.32 11.93 2.67 12.22 3.06 12.47C3.4 12.7 3.76 12.9 4.15 13.06ZM7.95 11.86C7.58 11.95 7.19 11.99 6.79 11.99C6.4 11.99 6.01 11.95 5.63 11.86C5.34 11.8 5.05 11.7 4.77 11.58C4.48 11.46 4.21 11.32 3.95 11.15C3.65 10.95 3.37 10.73 3.12 10.47C2.86 10.21 2.63 9.94 2.44 9.64C2.27 9.38 2.13 9.11 2 8.82C1.88 8.54 1.79 8.25 1.72 7.95C1.64 7.58 1.59 7.19 1.59 6.79C1.59 6.09 1.73 5.41 2 4.77C2.13 4.48 2.27 4.21 2.44 3.95C2.63 3.65 2.86 3.37 3.12 3.12C3.37 2.86 3.65 2.63 3.95 2.44C4.21 2.27 4.48 2.13 4.77 2C5.05 1.88 5.34 1.79 5.63 1.72C6.01 1.64 6.4 1.59 6.79 1.59C7.5 1.59 8.17 1.73 8.82 2C9.11 2.13 9.38 2.27 9.64 2.44C9.94 2.63 10.21 2.86 10.47 3.12C10.95 3.6 11.32 4.15 11.58 4.77C11.7 5.05 11.8 5.34 11.86 5.63C11.95 6.01 11.99 6.4 11.99 6.79C11.99 7.19 11.95 7.58 11.86 7.95C11.8 8.25 11.7 8.54 11.58 8.82C11.32 9.44 10.95 9.99 10.47 10.47C10.21 10.73 9.94 10.95 9.64 11.15C9.38 11.32 9.11 11.46 8.82 11.58C8.54 11.7 8.25 11.8 7.95 11.86Z" fill="#6A6A77" fill-opacity="1.000000" fill-rule="evenodd"/>
</svg>
