<svg width="32.000000" height="32.000000" viewBox="0 0 32 32" fill="none" xmlns="http://www.w3.org/2000/svg" xmlns:xlink="http://www.w3.org/1999/xlink">
	<desc>
			Created with Pixso.
	</desc>
	<defs>
		<clipPath id="clip8_13">
			<rect id="user" width="32.000000" height="32.000000" fill="white" fill-opacity="0"/>
		</clipPath>
	</defs>
	<g clip-path="url(#clip8_13)">
		<path id="path (Граница)" d="M13.32 15.66C14.17 16.02 15.06 16.2 16 16.2C16.93 16.2 17.82 16.02 18.67 15.66C19.06 15.49 19.43 15.3 19.78 15.07C20.16 14.81 20.52 14.52 20.85 14.19C21.19 13.86 21.48 13.5 21.73 13.11C21.96 12.77 22.16 12.4 22.33 12C22.69 11.15 22.87 10.26 22.87 9.33C22.87 8.4 22.69 7.51 22.33 6.65C22.16 6.26 21.96 5.89 21.73 5.54C21.48 5.16 21.19 4.8 20.85 4.47C20.52 4.14 20.16 3.84 19.78 3.59C19.43 3.36 19.06 3.16 18.67 3C18.28 2.83 17.88 2.7 17.47 2.61C16.99 2.51 16.5 2.46 16 2.46C15.06 2.46 14.17 2.64 13.32 3C12.93 3.16 12.56 3.36 12.21 3.59C11.83 3.84 11.47 4.14 11.14 4.47C10.8 4.8 10.51 5.16 10.26 5.54C10.03 5.89 9.83 6.26 9.66 6.65C9.5 7.04 9.37 7.44 9.28 7.85C9.18 8.33 9.12 8.82 9.12 9.33C9.12 10.26 9.3 11.15 9.66 12C9.83 12.4 10.03 12.77 10.26 13.11C10.51 13.5 10.8 13.86 11.14 14.19C11.47 14.52 11.83 14.81 12.21 15.07C12.56 15.3 12.93 15.49 13.32 15.66ZM17.45 12.84C17 13.03 16.52 13.12 16 13.12C15.47 13.12 14.99 13.03 14.54 12.84C14.09 12.66 13.68 12.38 13.31 12.01C12.94 11.64 12.66 11.23 12.48 10.78C12.29 10.34 12.2 9.85 12.2 9.33C12.2 8.8 12.29 8.32 12.48 7.87C12.66 7.42 12.94 7.02 13.31 6.65C13.68 6.28 14.09 6 14.54 5.81C14.99 5.63 15.47 5.53 16 5.53C16.52 5.53 17 5.63 17.45 5.81C17.9 6 18.31 6.28 18.68 6.65C19.05 7.02 19.33 7.42 19.51 7.87C19.7 8.32 19.79 8.8 19.79 9.33C19.79 9.85 19.7 10.34 19.51 10.78C19.33 11.23 19.05 11.64 18.68 12.01C18.31 12.38 17.9 12.66 17.45 12.84Z" fill="#000000" fill-opacity="1.000000" fill-rule="evenodd"/>
		<path id="path (Граница)" d="M6.07 29.42C6.26 29.5 6.46 29.53 6.66 29.53L25.33 29.53C25.53 29.53 25.73 29.5 25.92 29.42C26.11 29.34 26.27 29.23 26.42 29.08C26.56 28.94 26.67 28.77 26.75 28.58C26.79 28.49 26.82 28.39 26.84 28.3C26.86 28.2 26.87 28.1 26.87 28C26.87 26.52 26.58 25.11 26.01 23.76C25.75 23.15 25.44 22.56 25.08 22.01C24.68 21.4 24.21 20.83 23.68 20.31C23.16 19.78 22.59 19.31 21.98 18.91C21.43 18.55 20.84 18.24 20.23 17.98C19.62 17.72 18.99 17.52 18.35 17.38C17.59 17.21 16.8 17.12 16 17.12C14.52 17.12 13.11 17.41 11.76 17.98C11.15 18.24 10.56 18.55 10.01 18.91C9.4 19.31 8.83 19.78 8.31 20.31C7.78 20.83 7.31 21.4 6.91 22.01C6.55 22.56 6.24 23.15 5.98 23.76C5.72 24.37 5.52 25 5.38 25.64C5.21 26.4 5.12 27.19 5.12 28C5.12 28.2 5.16 28.4 5.24 28.58C5.32 28.77 5.43 28.94 5.57 29.08C5.72 29.23 5.88 29.34 6.07 29.42ZM8.35 26.46L23.64 26.46C23.54 25.95 23.38 25.45 23.18 24.96C22.99 24.53 22.78 24.12 22.52 23.73C22.23 23.29 21.89 22.87 21.51 22.48C21.12 22.1 20.7 21.76 20.26 21.47C19.87 21.21 19.46 21 19.03 20.81C18.61 20.64 18.18 20.5 17.74 20.4C17.17 20.27 16.59 20.2 16 20.2C15.4 20.2 14.82 20.27 14.25 20.4C13.81 20.5 13.38 20.64 12.96 20.81C12.53 21 12.12 21.21 11.73 21.47C11.29 21.76 10.87 22.1 10.48 22.48C10.1 22.87 9.76 23.29 9.47 23.73C9.21 24.12 9 24.53 8.81 24.96C8.64 25.38 8.5 25.81 8.4 26.25C8.38 26.32 8.37 26.39 8.35 26.46Z" fill="#000000" fill-opacity="1.000000" fill-rule="evenodd"/>
	</g>
</svg>
